<svg xmlns="http://www.w3.org/2000/svg" viewBox="0 0 556 556">
  <defs>
    <style>
      .cls-1 {
        fill: #fff;
      }
    </style>
  </defs>
  <g id="Layer_2" data-name="Layer 2">
    <g id="Layer_1-2" data-name="Layer 1">
      <g>
        <g>
          <path class="cls-1" d="M278.5,556A277.50005,277.50005,0,0,1,82.27783,82.27783,277.49971,277.49971,0,1,1,474.72168,474.72168,275.6803,275.6803,0,0,1,278.5,556Zm0-517C146.43945,39,39,146.43945,39,278.5S146.43945,518,278.5,518,518,410.56055,518,278.5,410.56055,39,278.5,39Z" transform="translate(-0.5 -0.5)"/>
          <path d="M278.5,1.5A277.0733,277.0733,0,0,1,386.32056,533.73236,277.072,277.072,0,0,1,170.67944,23.26764,275.26471,275.26471,0,0,1,278.5,1.5m0,517c132.33643,0,240-107.66357,240-240s-107.66357-240-240-240-240,107.66357-240,240,107.66357,240,240,240m0-518C124.96484.5.5,124.96486.5,278.5s124.46484,278,278,278,278-124.46484,278-278S432.03516.5,278.5.5Zm0,517c-131.996,0-239-107.004-239-239s107.004-239,239-239,239,107.00392,239,239-107.004,239-239,239Z" transform="translate(-0.5 -0.5)"/>
        </g>
        <g>
          <polygon class="cls-1" points="263.5 468.5 263.5 291.5 87.5 291.5 87.5 263.5 263.5 263.5 263.5 86.5 291.5 86.5 291.5 263.5 469.5 263.5 469.5 291.5 291.5 291.5 291.5 468.5 263.5 468.5"/>
          <path d="M291.5,87.5v177h178v27h-178v177h-27v-177H88.5v-27h176V87.5h27m1-1h-29v177H87.5v29h176v177h29v-177h178v-29h-178V86.5Z" transform="translate(-0.5 -0.5)"/>
        </g>
      </g>
    </g>
  </g>
</svg>
